<?xml version="1.0" encoding="UTF-8"?><svg id="a" xmlns="http://www.w3.org/2000/svg" width="953" height="858" xmlns:xlink="http://www.w3.org/1999/xlink" viewBox="0 0 953 858"><defs><style>.c{fill:#7a7649;}.d{fill:none;stroke:url(#b);stroke-miterlimit:10;stroke-width:27px;}</style><linearGradient id="b" x1="196.42" y1="706.81" x2="752.72" y2="150.51" gradientTransform="matrix(1, 0, 0, 1, 0, 0)" gradientUnits="userSpaceOnUse"><stop offset=".04" stop-color="#c7cdb0"/><stop offset=".64" stop-color="#717349"/><stop offset=".7" stop-color="#787a51"/><stop offset=".8" stop-color="#8b8f69"/><stop offset=".91" stop-color="#abb08f"/><stop offset="1" stop-color="#c7cdb0"/></linearGradient></defs><ellipse cx="474.57" cy="428.66" rx="384.28" ry="375.39" style="fill:none; stroke:url(#b); stroke-miterlimit:10; stroke-width:27px;"/><g><path d="M186.19,402.54v-91.52h20.51l36.5,62.23h-10.82l35.49-62.23h20.51l.25,91.52h-22.9l-.25-55.3h3.9l-26.55,46.28h-11.07l-27.31-46.28h4.78v55.3h-23.03Z" style="fill:#7a7649;"/><path d="M326.64,403.71c-5.46,0-10.07-.96-13.84-2.88s-6.65-4.53-8.62-7.84c-1.97-3.31-2.96-7.01-2.96-11.11,0-4.36,1.07-8.13,3.21-11.31,2.14-3.18,5.43-5.62,9.88-7.32,4.45-1.7,10.19-2.55,17.24-2.55h16.11v12.94h-12.84c-3.86,0-6.57,.65-8.12,1.96-1.55,1.31-2.33,3.05-2.33,5.23s.8,3.92,2.39,5.23c1.59,1.31,3.78,1.96,6.54,1.96,2.6,0,4.97-.67,7.11-2.03,2.14-1.35,3.71-3.42,4.72-6.21l3.27,9.15c-1.26,4.88-3.71,8.56-7.36,11.05s-8.45,3.73-14.41,3.73Zm20.13-1.18v-13.2l-1.64-3.27v-24.32c0-3.92-1.15-6.95-3.46-9.09-2.31-2.13-5.98-3.2-11.01-3.2-3.27,0-6.59,.55-9.94,1.63-3.36,1.09-6.21,2.59-8.56,4.51l-8.05-16.86c3.86-2.61,8.49-4.64,13.91-6.08,5.41-1.44,10.8-2.16,16.17-2.16,11.07,0,19.65,2.64,25.74,7.91,6.08,5.27,9.12,13.53,9.12,24.77v39.35h-22.28Z" style="fill:#7a7649;"/><path d="M408.94,403.71c-5.79,0-11.43-.7-16.93-2.09-5.5-1.39-9.92-3.14-13.28-5.23l7.17-17c3.19,2.01,6.92,3.6,11.2,4.77,4.28,1.18,8.47,1.77,12.58,1.77s6.81-.44,8.37-1.31c1.55-.87,2.33-2.05,2.33-3.53,0-1.39-.74-2.42-2.2-3.07-1.47-.65-3.4-1.15-5.79-1.5-2.39-.35-5.01-.74-7.87-1.18-2.85-.44-5.73-1.02-8.62-1.76-2.89-.74-5.54-1.87-7.93-3.4-2.39-1.52-4.3-3.6-5.73-6.21-1.43-2.61-2.14-5.93-2.14-9.94,0-4.53,1.28-8.56,3.84-12.09,2.56-3.53,6.31-6.32,11.26-8.37,4.95-2.05,10.99-3.07,18.12-3.07,4.78,0,9.63,.5,14.54,1.5,4.91,1,9.04,2.51,12.4,4.51l-7.17,16.87c-3.36-2-6.71-3.38-10.07-4.12-3.36-.74-6.54-1.11-9.56-1.11-4.03,0-6.86,.48-8.5,1.44-1.64,.96-2.45,2.14-2.45,3.53s.71,2.46,2.14,3.2c1.43,.74,3.33,1.31,5.73,1.7,2.39,.39,5.01,.78,7.87,1.18,2.85,.39,5.73,.98,8.62,1.77,2.89,.78,5.54,1.94,7.93,3.46,2.39,1.53,4.3,3.58,5.73,6.15,1.43,2.57,2.14,5.86,2.14,9.87,0,4.36-1.28,8.28-3.84,11.77-2.56,3.49-6.34,6.28-11.33,8.37-4.99,2.09-11.18,3.14-18.56,3.14Z" style="fill:#7a7649;"/><path d="M477.77,403.71c-5.79,0-11.43-.7-16.93-2.09-5.5-1.39-9.92-3.14-13.28-5.23l7.17-17c3.19,2.01,6.92,3.6,11.2,4.77,4.28,1.18,8.47,1.77,12.58,1.77s6.81-.44,8.37-1.31c1.55-.87,2.33-2.05,2.33-3.53,0-1.39-.74-2.42-2.2-3.07-1.47-.65-3.4-1.15-5.79-1.5-2.39-.35-5.01-.74-7.87-1.18-2.85-.44-5.73-1.02-8.62-1.76-2.89-.74-5.54-1.87-7.93-3.4-2.39-1.52-4.3-3.6-5.73-6.21-1.43-2.61-2.14-5.93-2.14-9.94,0-4.53,1.28-8.56,3.84-12.09,2.56-3.53,6.31-6.32,11.26-8.37,4.95-2.05,10.99-3.07,18.12-3.07,4.78,0,9.63,.5,14.54,1.5,4.91,1,9.04,2.51,12.4,4.51l-7.17,16.87c-3.36-2-6.71-3.38-10.07-4.12-3.36-.74-6.54-1.11-9.56-1.11-4.03,0-6.86,.48-8.5,1.44-1.64,.96-2.45,2.14-2.45,3.53s.71,2.46,2.14,3.2c1.43,.74,3.33,1.31,5.73,1.7,2.39,.39,5.01,.78,7.87,1.18,2.85,.39,5.73,.98,8.62,1.77,2.89,.78,5.54,1.94,7.93,3.46,2.39,1.53,4.3,3.58,5.73,6.15,1.43,2.57,2.14,5.86,2.14,9.87,0,4.36-1.28,8.28-3.84,11.77-2.56,3.49-6.34,6.28-11.33,8.37-4.99,2.09-11.18,3.14-18.56,3.14Z" style="fill:#7a7649;"/><path d="M543.34,403.71c-5.46,0-10.07-.96-13.84-2.88s-6.65-4.53-8.62-7.84c-1.97-3.31-2.96-7.01-2.96-11.11,0-4.36,1.07-8.13,3.21-11.31,2.14-3.18,5.43-5.62,9.88-7.32,4.45-1.7,10.19-2.55,17.24-2.55h16.11v12.94h-12.84c-3.86,0-6.57,.65-8.12,1.96-1.55,1.31-2.33,3.05-2.33,5.23s.8,3.92,2.39,5.23c1.59,1.31,3.78,1.96,6.54,1.96,2.6,0,4.97-.67,7.11-2.03,2.14-1.35,3.71-3.42,4.72-6.21l3.27,9.15c-1.26,4.88-3.71,8.56-7.36,11.05s-8.45,3.73-14.41,3.73Zm20.13-1.18v-13.2l-1.64-3.27v-24.32c0-3.92-1.15-6.95-3.46-9.09-2.31-2.13-5.98-3.2-11.01-3.2-3.27,0-6.59,.55-9.94,1.63-3.36,1.09-6.21,2.59-8.56,4.51l-8.05-16.86c3.86-2.61,8.49-4.64,13.91-6.08,5.41-1.44,10.8-2.16,16.17-2.16,11.07,0,19.65,2.64,25.74,7.91,6.08,5.27,9.12,13.53,9.12,24.77v39.35h-22.28Z" style="fill:#7a7649;"/><path d="M630.93,398.88c-6.04,0-11.6-1.42-16.67-4.25-5.08-2.83-9.15-6.8-12.21-11.9-3.06-5.1-4.59-11.13-4.59-18.11s1.53-13.01,4.59-18.11c3.06-5.1,7.13-9.04,12.21-11.83,5.08-2.79,10.63-4.18,16.67-4.18s10.74,1.2,14.85,3.6c4.11,2.4,7.24,6.12,9.38,11.18,2.14,5.06,3.21,11.5,3.21,19.35s-1.07,14.3-3.21,19.35c-2.14,5.06-5.27,8.8-9.38,11.24-4.11,2.44-9.06,3.66-14.85,3.66Zm4.15,30.2c-6.54,0-12.77-.78-18.69-2.35-5.92-1.57-10.97-3.88-15.17-6.93l8.68-17.39c2.85,2.35,6.4,4.2,10.63,5.56,4.24,1.35,8.37,2.03,12.4,2.03,6.46,0,11.12-1.46,13.97-4.38,2.85-2.92,4.28-7.17,4.28-12.75v-8.37l1.26-19.87-.13-20v-12.94h22.78v57.92c0,13.42-3.48,23.36-10.45,29.81-6.96,6.45-16.82,9.67-29.57,9.67Zm1.51-49.94c2.85,0,5.39-.61,7.61-1.83,2.22-1.22,3.98-2.92,5.29-5.1,1.3-2.18,1.95-4.71,1.95-7.58s-.65-5.4-1.95-7.58c-1.3-2.18-3.06-3.86-5.29-5.03-2.22-1.18-4.76-1.76-7.61-1.76s-5.41,.59-7.68,1.76c-2.27,1.18-4.05,2.86-5.35,5.03-1.3,2.18-1.95,4.71-1.95,7.58s.65,5.41,1.95,7.58c1.3,2.18,3.08,3.88,5.35,5.1,2.26,1.22,4.82,1.83,7.68,1.83Z" style="fill:#7a7649;"/><path d="M726.19,403.71c-8.05,0-15.08-1.59-21.08-4.77-6-3.18-10.66-7.54-13.97-13.07-3.32-5.53-4.97-11.83-4.97-18.89s1.61-13.36,4.85-18.89c3.23-5.53,7.7-9.85,13.4-12.94,5.7-3.09,12.12-4.64,19.25-4.64,6.71,0,12.84,1.42,18.37,4.25,5.54,2.83,9.94,6.99,13.21,12.48,3.27,5.49,4.91,12.16,4.91,20,0,.87-.04,1.88-.13,3.01-.08,1.13-.17,2.18-.25,3.14h-53.99v-13.07h41.28l-9.06,3.66c.08-3.22-.48-6.01-1.7-8.37-1.22-2.35-2.89-4.18-5.03-5.49-2.14-1.31-4.64-1.96-7.49-1.96s-5.35,.65-7.49,1.96c-2.14,1.31-3.8,3.16-4.97,5.56-1.18,2.4-1.76,5.21-1.76,8.43v3.79c0,3.49,.69,6.49,2.08,9.02,1.38,2.53,3.38,4.47,5.98,5.82,2.6,1.35,5.7,2.03,9.31,2.03,3.35,0,6.23-.5,8.62-1.5,2.39-1,4.76-2.55,7.11-4.64l12.58,13.6c-3.27,3.75-7.3,6.6-12.08,8.56-4.78,1.96-10.45,2.94-16.99,2.94Z" style="fill:#7a7649;"/><path d="M281.21,559.42h-24.92v-91.52h69.09v20h-44.17v71.51Zm-1.76-51.38h40.65v20h-40.65v-20Z" style="fill:#7a7649;"/><path d="M363.13,560.6c-5.54,0-10.51-1.13-14.91-3.4-4.41-2.27-7.85-5.82-10.32-10.65-2.48-4.84-3.71-10.96-3.71-18.37v-39.61h23.91v35.56c0,5.49,.98,9.41,2.96,11.77,1.97,2.35,4.76,3.53,8.37,3.53,2.35,0,4.49-.57,6.42-1.7,1.93-1.13,3.48-2.94,4.66-5.43,1.17-2.48,1.76-5.69,1.76-9.61v-34.12h23.91v70.86h-22.78v-20l4.4,5.62c-2.35,5.23-5.75,9.13-10.19,11.7-4.45,2.57-9.27,3.86-14.47,3.86Z" style="fill:#7a7649;"/><path d="M446.31,560.6c-5.79,0-11.43-.7-16.93-2.09-5.5-1.39-9.92-3.14-13.28-5.23l7.17-17c3.19,2.01,6.92,3.6,11.2,4.77,4.28,1.18,8.47,1.77,12.58,1.77s6.81-.44,8.37-1.31c1.55-.87,2.33-2.05,2.33-3.53,0-1.39-.74-2.42-2.2-3.07-1.47-.65-3.4-1.15-5.79-1.5-2.39-.35-5.01-.74-7.87-1.18-2.85-.44-5.73-1.02-8.62-1.76-2.89-.74-5.54-1.87-7.93-3.4-2.39-1.52-4.3-3.6-5.73-6.21-1.43-2.61-2.14-5.93-2.14-9.94,0-4.53,1.28-8.56,3.84-12.09,2.56-3.53,6.31-6.32,11.26-8.37,4.95-2.05,10.99-3.07,18.12-3.07,4.78,0,9.63,.5,14.54,1.5,4.91,1,9.04,2.51,12.4,4.51l-7.17,16.87c-3.36-2-6.71-3.38-10.07-4.12-3.36-.74-6.54-1.11-9.56-1.11-4.03,0-6.86,.48-8.5,1.44-1.64,.96-2.45,2.14-2.45,3.53s.71,2.46,2.14,3.2c1.43,.74,3.33,1.31,5.73,1.7,2.39,.39,5.01,.78,7.87,1.18,2.85,.39,5.73,.98,8.62,1.77,2.89,.78,5.54,1.94,7.93,3.46,2.39,1.53,4.3,3.58,5.73,6.15,1.43,2.57,2.14,5.86,2.14,9.87,0,4.36-1.28,8.28-3.84,11.77-2.56,3.49-6.34,6.28-11.33,8.37-4.99,2.09-11.18,3.14-18.56,3.14Z" style="fill:#7a7649;"/><path d="M502.31,480.72c-4.36,0-7.89-1.26-10.57-3.79-2.69-2.53-4.03-5.66-4.03-9.41s1.34-6.88,4.03-9.41c2.68-2.53,6.21-3.79,10.57-3.79s7.88,1.2,10.57,3.6c2.68,2.4,4.03,5.47,4.03,9.22s-1.32,7.17-3.96,9.74c-2.64,2.57-6.19,3.86-10.63,3.86Zm-11.96,78.7v-70.86h23.91v70.86h-23.91Z" style="fill:#7a7649;"/><path d="M563.98,560.6c-7.47,0-14.09-1.57-19.88-4.71-5.79-3.14-10.34-7.47-13.65-13.01-3.32-5.53-4.97-11.87-4.97-19.02s1.66-13.47,4.97-18.96c3.31-5.49,7.87-9.78,13.65-12.88,5.79-3.09,12.42-4.64,19.88-4.64s14.11,1.55,19.95,4.64c5.83,3.09,10.38,7.39,13.65,12.88,3.27,5.49,4.91,11.81,4.91,18.96s-1.64,13.49-4.91,19.02c-3.27,5.54-7.82,9.87-13.65,13.01-5.83,3.14-12.48,4.71-19.95,4.71Zm0-19.74c2.77,0,5.22-.65,7.36-1.96,2.14-1.31,3.84-3.25,5.1-5.82,1.26-2.57,1.89-5.64,1.89-9.22s-.63-6.6-1.89-9.09-2.96-4.38-5.1-5.69c-2.14-1.31-4.59-1.96-7.36-1.96s-5.1,.65-7.24,1.96c-2.14,1.31-3.86,3.2-5.16,5.69-1.3,2.48-1.95,5.51-1.95,9.09s.65,6.65,1.95,9.22c1.3,2.57,3.02,4.51,5.16,5.82,2.14,1.31,4.55,1.96,7.24,1.96Z" style="fill:#7a7649;"/><path d="M657.98,487.38c5.29,0,10.07,1.11,14.35,3.33,4.28,2.22,7.66,5.64,10.13,10.26,2.47,4.62,3.71,10.59,3.71,17.91v40.53h-23.91v-36.48c0-5.05-.99-8.74-2.96-11.05-1.97-2.31-4.72-3.46-8.24-3.46-2.52,0-4.83,.59-6.92,1.77-2.1,1.18-3.73,2.99-4.91,5.43-1.18,2.44-1.76,5.62-1.76,9.54v34.25h-23.91v-70.86h22.78v20.13l-4.41-5.88c2.6-5.14,6.17-9,10.7-11.57,4.53-2.57,9.65-3.86,15.35-3.86Z" style="fill:#7a7649;"/></g></svg>