<?xml version="1.0" encoding="utf-8"?>
<!-- Generator: Adobe Illustrator 26.3.1, SVG Export Plug-In . SVG Version: 6.00 Build 0)  -->
<svg version="1.1" id="Layer_1" xmlns="http://www.w3.org/2000/svg" xmlns:xlink="http://www.w3.org/1999/xlink" x="0px" y="0px"
	 viewBox="0 0 32 32" style="enable-background:new 0 0 32 32;" xml:space="preserve">
<style type="text/css">
	.st0{fill:#6C7957;}
</style>
<path class="st0" d="M18.7,25.3h6.7V6.7H6.7v18.7H16v-6.7h-2.7V16H16v-2.2c0-1.8,0.2-2.4,0.5-3.1c0.3-0.6,0.9-1.2,1.5-1.5
	c0.5-0.3,1.1-0.4,2.2-0.5c0.4,0,1,0,1.7,0.1v2.5h-0.7c-1.2,0-1.7,0.1-2,0.2c-0.2,0.1-0.3,0.2-0.4,0.4c-0.2,0.3-0.2,0.6-0.2,1.8V16
	H22l-0.7,2.7h-2.7V25.3z M5.3,4h21.3C27.4,4,28,4.6,28,5.3v21.3c0,0.7-0.6,1.3-1.3,1.3H5.3C4.6,28,4,27.4,4,26.7V5.3
	C4,4.6,4.6,4,5.3,4z"/>
</svg>
