<svg xmlns="http://www.w3.org/2000/svg" width="129.608" height="129.608" viewBox="0 0 129.608 129.608">
  <g id="CarbonInformationSquareFilled" transform="translate(0)">
    <path id="Path_12" data-name="Path 12" d="M16,8c.828,0,1.5,5.07,1.5,11.324S16.828,30.648,16,30.648s-1.5-5.07-1.5-11.324S15.172,8,16,8Zm4,104.747H17.125V52.352H13V69.339h1.875v43.409H12v16.986h8Z" transform="translate(48.804 -4)" fill="none"/>
    <path id="Path_13" data-name="Path 13" d="M122.808,4H14.8A10.8,10.8,0,0,0,4,14.8V122.808a10.8,10.8,0,0,0,10.8,10.8H122.808a10.8,10.8,0,0,0,10.8-10.8V14.8A10.8,10.8,0,0,0,122.808,4Zm-54,21.6a8.1,8.1,0,1,1-8.1,8.1A8.1,8.1,0,0,1,68.8,25.6Zm21.6,87.081H47.2V100.531H62.729V69.479H52.6V57.328H74.88v43.2H90.406Z" transform="translate(-4 -4)" fill="#393f2c"/>
  </g>
</svg>
