<svg xmlns="http://www.w3.org/2000/svg" width="129.608" height="129.608" viewBox="0 0 129.608 129.608">
  <path id="IcBaselineLocalPhone" d="M29.066,59.092a109.077,109.077,0,0,0,47.451,47.451L92.358,90.7A7.159,7.159,0,0,1,99.7,88.974a82.135,82.135,0,0,0,25.706,4.1,7.222,7.222,0,0,1,7.2,7.2v25.13a7.222,7.222,0,0,1-7.2,7.2A122.4,122.4,0,0,1,3,10.2,7.222,7.222,0,0,1,10.2,3H35.4a7.222,7.222,0,0,1,7.2,7.2,81.8,81.8,0,0,0,4.1,25.706,7.226,7.226,0,0,1-1.8,7.344Z" transform="translate(-3 -3)" fill="#393f2c"/>
</svg>
