<?xml version="1.0" encoding="UTF-8"?><svg xmlns="http://www.w3.org/2000/svg" width="382.68" height="407.66" viewBox="0 0 382.68 407.66"><g id="a"/><g id="b"><g id="c"><rect width="382.68" height="407.66" style="fill:#aaa694; opacity:.42;"/><g><path d="M16.95,28.57v-9.8h4.21c1.08,0,1.9,.23,2.44,.7s.82,1.08,.82,1.85c0,.51-.11,.96-.33,1.34-.22,.38-.53,.67-.91,.88-.39,.21-.83,.31-1.33,.31l.23-.57c.54,0,1.02,.1,1.44,.3,.42,.2,.74,.5,.98,.89,.23,.39,.35,.87,.35,1.44,0,.84-.29,1.5-.87,1.97-.58,.47-1.44,.71-2.57,.71h-4.45Zm1.98-1.71h2.32c.52,0,.91-.1,1.17-.29s.4-.5,.4-.92-.13-.72-.4-.92c-.27-.2-.66-.3-1.17-.3h-2.47v-1.65h2.13c.48,0,.86-.1,1.11-.29,.26-.19,.39-.48,.39-.88s-.13-.67-.39-.86c-.26-.19-.63-.29-1.11-.29h-1.98v6.38Z"/><path d="M29.03,19.99c-.35,0-.64-.12-.86-.35-.22-.23-.33-.52-.33-.87s.11-.63,.33-.87c.22-.23,.51-.35,.86-.35s.64,.11,.86,.33c.22,.22,.33,.5,.33,.85,0,.36-.11,.67-.33,.9-.22,.24-.51,.36-.87,.36Zm-.96,8.58v-7.53h1.92v7.53h-1.92Z"/><path d="M33.61,28.57v-10.39h1.92v10.39h-1.92Z"/><path d="M39.16,28.57v-10.39h1.92v10.39h-1.92Z"/><path d="M47.99,28.69c-.75,0-1.42-.17-1.99-.5-.57-.34-1.01-.8-1.32-1.38-.31-.58-.47-1.25-.47-1.99s.15-1.43,.46-2.01c.31-.58,.73-1.04,1.26-1.37,.53-.33,1.14-.5,1.81-.5s1.23,.16,1.75,.47,.93,.76,1.24,1.34c.3,.58,.46,1.28,.46,2.09,0,.08,0,.18-.01,.29s-.02,.21-.02,.3h-5.38v-1.27h4.37l-.74,.38c0-.39-.07-.73-.21-1.02-.14-.29-.33-.52-.58-.68-.25-.16-.53-.25-.86-.25s-.62,.08-.87,.25-.44,.39-.58,.69c-.14,.29-.21,.64-.21,1.04v.34c0,.41,.08,.77,.24,1.08,.16,.31,.39,.55,.68,.71s.63,.25,1.03,.25c.35,0,.66-.06,.93-.18,.27-.12,.51-.3,.73-.55l1.02,1.26c-.3,.39-.68,.69-1.14,.9s-.99,.32-1.59,.32Z"/><path d="M57.15,28.69c-.62,0-1.18-.16-1.68-.48-.5-.32-.9-.77-1.19-1.35-.29-.58-.44-1.26-.44-2.04s.15-1.48,.44-2.06c.29-.58,.69-1.03,1.19-1.34,.5-.32,1.06-.48,1.68-.48,.56,0,1.04,.14,1.46,.42,.42,.28,.74,.7,.97,1.27s.34,1.3,.34,2.18-.11,1.6-.33,2.18-.54,1-.95,1.28c-.41,.28-.91,.42-1.49,.42Zm.33-1.79c.31,0,.59-.08,.85-.25s.46-.41,.61-.72c.15-.31,.23-.68,.23-1.11s-.08-.81-.23-1.12c-.15-.31-.35-.55-.61-.71s-.54-.25-.85-.25-.61,.08-.86,.25c-.25,.17-.46,.41-.61,.71-.15,.31-.23,.68-.23,1.12s.08,.8,.23,1.11c.15,.31,.35,.55,.61,.72,.25,.17,.54,.25,.86,.25Zm1.73,1.68v-1.54l.04-2.24-.12-2.23v-4.38h1.92v10.39h-1.83Z"/><path d="M67.95,28.69c-.75,0-1.42-.17-1.99-.5-.57-.34-1.01-.8-1.32-1.38-.31-.58-.47-1.25-.47-1.99s.15-1.43,.46-2.01c.31-.58,.73-1.04,1.26-1.37,.53-.33,1.14-.5,1.81-.5s1.23,.16,1.75,.47,.93,.76,1.24,1.34c.3,.58,.46,1.28,.46,2.09,0,.08,0,.18-.01,.29s-.02,.21-.02,.3h-5.38v-1.27h4.37l-.74,.38c0-.39-.07-.73-.21-1.02-.14-.29-.33-.52-.58-.68-.25-.16-.53-.25-.86-.25s-.62,.08-.87,.25-.44,.39-.58,.69c-.14,.29-.21,.64-.21,1.04v.34c0,.41,.08,.77,.24,1.08,.16,.31,.39,.55,.68,.71s.63,.25,1.03,.25c.35,0,.66-.06,.93-.18,.27-.12,.51-.3,.73-.55l1.02,1.26c-.3,.39-.68,.69-1.14,.9s-.99,.32-1.59,.32Z"/><path d="M82.44,28.69c-.62,0-1.18-.16-1.68-.48-.5-.32-.9-.77-1.19-1.35-.29-.58-.44-1.26-.44-2.04s.15-1.48,.44-2.06c.29-.58,.69-1.03,1.19-1.34,.5-.32,1.06-.48,1.68-.48,.56,0,1.04,.14,1.46,.42,.42,.28,.74,.7,.97,1.27s.34,1.3,.34,2.18-.11,1.6-.33,2.18-.54,1-.95,1.28c-.41,.28-.91,.42-1.49,.42Zm.33-1.79c.31,0,.59-.08,.85-.25s.46-.41,.61-.72c.15-.31,.23-.68,.23-1.11s-.08-.81-.23-1.12c-.15-.31-.35-.55-.61-.71s-.54-.25-.85-.25-.61,.08-.86,.25c-.25,.17-.46,.41-.61,.71-.15,.31-.23,.68-.23,1.12s.08,.8,.23,1.11c.15,.31,.35,.55,.61,.72,.25,.17,.54,.25,.86,.25Zm1.73,1.68v-1.54l.04-2.24-.12-2.23v-4.38h1.92v10.39h-1.83Z"/><path d="M93.24,28.69c-.75,0-1.42-.17-1.99-.5-.57-.34-1.01-.8-1.32-1.38-.31-.58-.47-1.25-.47-1.99s.15-1.43,.46-2.01c.31-.58,.73-1.04,1.26-1.37,.53-.33,1.14-.5,1.81-.5s1.23,.16,1.75,.47,.93,.76,1.24,1.34c.3,.58,.46,1.28,.46,2.09,0,.08,0,.18-.01,.29s-.02,.21-.02,.3h-5.38v-1.27h4.37l-.74,.38c0-.39-.07-.73-.21-1.02-.14-.29-.33-.52-.58-.68-.25-.16-.53-.25-.86-.25s-.62,.08-.87,.25-.44,.39-.58,.69c-.14,.29-.21,.64-.21,1.04v.34c0,.41,.08,.77,.24,1.08,.16,.31,.39,.55,.68,.71s.63,.25,1.03,.25c.35,0,.66-.06,.93-.18,.27-.12,.51-.3,.73-.55l1.02,1.26c-.3,.39-.68,.69-1.14,.9s-.99,.32-1.59,.32Z"/><path d="M99.56,28.57v-7.53h1.83v2.13l-.26-.62c.2-.53,.51-.94,.95-1.21,.43-.27,.96-.41,1.59-.41v2.02c-.08,0-.16-.02-.22-.02-.07,0-.13,0-.21,0-.52,0-.95,.17-1.27,.51-.32,.34-.49,.87-.49,1.59v3.56h-1.92Z"/><path d="M120.5,20.93c.52,0,.99,.12,1.4,.36,.41,.24,.73,.6,.96,1.09,.23,.49,.35,1.12,.35,1.88v4.31h-1.92v-3.98c0-.61-.11-1.05-.33-1.34-.22-.29-.53-.43-.93-.43-.28,0-.53,.07-.75,.22-.22,.14-.39,.36-.52,.65-.12,.29-.18,.66-.18,1.11v3.78h-1.92v-3.98c0-.61-.11-1.05-.33-1.34-.22-.29-.53-.43-.93-.43-.28,0-.53,.07-.75,.22-.22,.14-.39,.36-.52,.65s-.18,.66-.18,1.11v3.78h-1.92v-7.53h1.83v2.06l-.34-.6c.23-.51,.55-.9,.98-1.17,.42-.27,.9-.4,1.45-.4,.61,0,1.14,.17,1.59,.52,.46,.35,.76,.88,.9,1.6l-.68-.21c.22-.59,.58-1.05,1.06-1.4,.49-.34,1.05-.52,1.68-.52Z"/><path d="M128.82,28.69c-.52,0-.96-.1-1.33-.3-.37-.2-.65-.47-.85-.82-.2-.35-.29-.73-.29-1.16s.1-.84,.29-1.18,.5-.6,.92-.79,.96-.29,1.64-.29h1.76v1.27h-1.55c-.45,0-.76,.08-.93,.25s-.25,.38-.25,.63c0,.28,.1,.5,.29,.67,.19,.16,.46,.24,.79,.24s.61-.09,.86-.26,.44-.43,.55-.76l.29,1.01c-.14,.49-.39,.85-.76,1.11s-.84,.38-1.43,.38Zm2.02-.11v-1.47l-.12-.32v-2.63c0-.47-.12-.83-.38-1.09-.25-.26-.63-.39-1.15-.39-.35,0-.7,.06-1.04,.19-.34,.13-.63,.3-.87,.51l-.69-1.53c.36-.29,.79-.51,1.3-.67,.51-.16,1.02-.24,1.55-.24,1.01,0,1.79,.27,2.35,.81s.84,1.39,.84,2.53v4.3h-1.79Z"/><path d="M135.42,22.89v-1.68h4.59v1.68h-4.59Zm3.49,5.8c-.78,0-1.39-.23-1.82-.68-.43-.45-.65-1.13-.65-2.02v-6.61h1.92v6.58c0,.32,.07,.56,.22,.74s.35,.26,.6,.26c.3,0,.56-.09,.78-.28l.52,1.54c-.2,.16-.43,.28-.71,.36-.28,.08-.56,.12-.86,.12Z"/><path d="M146.39,28.69c-.71,0-1.35-.17-1.91-.5s-.99-.79-1.31-1.38-.47-1.26-.47-2,.16-1.43,.47-2.01c.32-.58,.75-1.04,1.31-1.37,.56-.33,1.19-.5,1.91-.5s1.3,.17,1.82,.5c.52,.33,.9,.81,1.14,1.42l-1.49,.91c-.17-.35-.39-.62-.65-.78-.26-.17-.54-.25-.84-.25-.33,0-.62,.08-.89,.25-.26,.17-.47,.41-.62,.71-.15,.31-.23,.68-.23,1.12s.08,.81,.23,1.12c.15,.31,.36,.55,.62,.71,.26,.17,.56,.25,.89,.25,.3,0,.58-.08,.84-.25,.26-.16,.47-.43,.65-.79l1.49,.92c-.25,.61-.63,1.08-1.14,1.41s-1.12,.5-1.82,.5Z"/><path d="M156.28,20.93c.52,0,.99,.12,1.41,.36s.74,.6,.98,1.09c.24,.49,.36,1.12,.36,1.88v4.31h-1.92v-3.98c0-.61-.12-1.05-.35-1.34-.23-.29-.56-.43-.99-.43-.3,0-.58,.07-.82,.22-.24,.14-.43,.37-.57,.67-.13,.3-.2,.68-.2,1.15v3.72h-1.92v-10.39h1.92v4.94l-.43-.63c.24-.5,.58-.89,1.02-1.16,.44-.27,.95-.41,1.51-.41Z"/><path d="M165.93,28.69c-.75,0-1.42-.17-1.99-.5-.57-.34-1.01-.8-1.32-1.38-.31-.58-.47-1.25-.47-1.99s.15-1.43,.46-2.01c.31-.58,.73-1.04,1.26-1.37,.53-.33,1.14-.5,1.81-.5s1.23,.16,1.75,.47,.93,.76,1.24,1.34c.3,.58,.46,1.28,.46,2.09,0,.08,0,.18-.01,.29s-.02,.21-.02,.3h-5.38v-1.27h4.37l-.74,.38c0-.39-.07-.73-.21-1.02-.14-.29-.33-.52-.58-.68-.25-.16-.53-.25-.86-.25s-.62,.08-.87,.25-.44,.39-.58,.69c-.14,.29-.21,.64-.21,1.04v.34c0,.41,.08,.77,.24,1.08,.16,.31,.39,.55,.68,.71s.63,.25,1.03,.25c.35,0,.66-.06,.93-.18,.27-.12,.51-.3,.73-.55l1.02,1.26c-.3,.39-.68,.69-1.14,.9s-.99,.32-1.59,.32Z"/><path d="M172.25,28.57v-7.53h1.83v2.13l-.26-.62c.2-.53,.51-.94,.95-1.21,.43-.27,.96-.41,1.59-.41v2.02c-.08,0-.16-.02-.22-.02-.07,0-.13,0-.21,0-.52,0-.95,.17-1.27,.51-.32,.34-.49,.87-.49,1.59v3.56h-1.92Z"/></g></g></g></svg>