<?xml version="1.0" encoding="UTF-8"?><svg xmlns="http://www.w3.org/2000/svg" width="1920" height="894" viewBox="0 0 1920 894"><g id="a"/><g id="b"><g id="c"><rect width="1920" height="894" style="fill:#aaa694; opacity:.42;"/><g><path d="M46,28.4h-1.99v-9.8h1.99v9.8Zm4.06-4.02h-4.21v-1.92h4.21v1.92Zm-.15-5.78h1.99v9.8h-1.99v-9.8Z"/><path d="M58.94,28.51c-.75,0-1.42-.17-1.99-.5-.57-.34-1.01-.8-1.32-1.38-.31-.58-.47-1.25-.47-1.99s.15-1.43,.46-2.01c.31-.58,.73-1.04,1.26-1.37,.53-.33,1.14-.5,1.81-.5s1.23,.16,1.75,.47,.93,.76,1.24,1.34c.3,.58,.46,1.28,.46,2.09,0,.08,0,.18-.01,.29s-.02,.21-.02,.3h-5.38v-1.27h4.37l-.74,.38c0-.39-.07-.73-.21-1.02-.14-.29-.33-.52-.58-.68-.25-.16-.53-.25-.86-.25s-.62,.08-.87,.25-.44,.39-.58,.69c-.14,.29-.21,.64-.21,1.04v.34c0,.41,.08,.77,.24,1.08,.16,.31,.39,.55,.68,.71s.63,.25,1.03,.25c.35,0,.66-.06,.93-.18,.27-.12,.51-.3,.73-.55l1.02,1.26c-.3,.39-.68,.69-1.14,.9s-.99,.32-1.59,.32Z"/><path d="M65.26,28.4v-7.53h1.83v2.13l-.26-.62c.2-.53,.51-.94,.95-1.21,.43-.27,.96-.41,1.59-.41v2.02c-.08,0-.16-.02-.22-.02-.07,0-.13,0-.21,0-.52,0-.95,.17-1.27,.51-.32,.34-.49,.87-.49,1.59v3.56h-1.92Z"/><path d="M75.44,28.51c-.71,0-1.33-.17-1.88-.5s-.98-.8-1.29-1.38c-.32-.58-.47-1.25-.47-1.99s.16-1.43,.47-2.01c.32-.58,.75-1.04,1.29-1.37,.54-.33,1.17-.5,1.88-.5s1.32,.17,1.87,.5c.55,.33,.98,.79,1.29,1.37,.31,.58,.47,1.25,.47,2.02s-.16,1.41-.47,1.99c-.31,.58-.74,1.04-1.29,1.38-.55,.34-1.17,.5-1.87,.5Zm0-1.79c.32,0,.61-.08,.86-.25s.46-.41,.6-.72c.15-.31,.22-.68,.22-1.11s-.07-.81-.22-1.12c-.15-.31-.35-.55-.6-.71s-.54-.25-.86-.25-.61,.08-.86,.25-.46,.41-.61,.71c-.15,.31-.23,.68-.23,1.12s.08,.8,.23,1.11c.15,.31,.35,.55,.61,.72s.54,.25,.86,.25Z"/><path d="M87.66,28.4v-9.8h4.21c1.08,0,1.9,.23,2.44,.7s.82,1.08,.82,1.85c0,.51-.11,.96-.33,1.34-.22,.38-.53,.67-.91,.88-.39,.21-.83,.31-1.33,.31l.23-.57c.54,0,1.02,.1,1.44,.3,.42,.2,.74,.5,.98,.89,.23,.39,.35,.87,.35,1.44,0,.84-.29,1.5-.87,1.97-.58,.47-1.44,.71-2.57,.71h-4.45Zm1.98-1.71h2.32c.52,0,.91-.1,1.17-.29s.4-.5,.4-.92-.13-.72-.4-.92c-.27-.2-.66-.3-1.17-.3h-2.47v-1.65h2.13c.48,0,.86-.1,1.11-.29,.26-.19,.39-.48,.39-.88s-.13-.67-.39-.86c-.26-.19-.63-.29-1.11-.29h-1.98v6.38Z"/><path d="M100.81,28.51c-.52,0-.96-.1-1.33-.3-.37-.2-.65-.47-.85-.82-.2-.35-.29-.73-.29-1.16s.1-.84,.29-1.18,.5-.6,.92-.79,.96-.29,1.64-.29h1.76v1.27h-1.55c-.45,0-.76,.08-.93,.25s-.25,.38-.25,.63c0,.28,.1,.5,.29,.67,.19,.16,.46,.24,.79,.24s.61-.09,.86-.26,.44-.43,.55-.76l.29,1.01c-.14,.49-.39,.85-.76,1.11s-.84,.38-1.43,.38Zm2.02-.11v-1.47l-.12-.32v-2.63c0-.47-.12-.83-.38-1.09-.25-.26-.63-.39-1.15-.39-.35,0-.7,.06-1.04,.19-.34,.13-.63,.3-.87,.51l-.69-1.53c.36-.29,.79-.51,1.3-.67,.51-.16,1.02-.24,1.55-.24,1.01,0,1.79,.27,2.35,.81s.84,1.39,.84,2.53v4.3h-1.79Z"/><path d="M112.23,20.76c.52,0,.99,.12,1.41,.36s.74,.6,.98,1.09c.24,.49,.36,1.12,.36,1.88v4.31h-1.92v-3.98c0-.61-.12-1.05-.35-1.34-.23-.29-.56-.43-.99-.43-.3,0-.58,.07-.82,.22-.24,.14-.43,.37-.57,.67-.13,.3-.2,.68-.2,1.15v3.72h-1.92v-7.53h1.83v2.09l-.34-.63c.24-.5,.58-.89,1.02-1.16,.44-.27,.95-.41,1.51-.41Z"/><path d="M122.57,20.76c.52,0,.99,.12,1.41,.36s.74,.6,.98,1.09c.24,.49,.36,1.12,.36,1.88v4.31h-1.92v-3.98c0-.61-.12-1.05-.35-1.34-.23-.29-.56-.43-.99-.43-.3,0-.58,.07-.82,.22-.24,.14-.43,.37-.57,.67-.13,.3-.2,.68-.2,1.15v3.72h-1.92v-7.53h1.83v2.09l-.34-.63c.24-.5,.58-.89,1.02-1.16,.44-.27,.95-.41,1.51-.41Z"/><path d="M132.23,28.51c-.75,0-1.42-.17-1.99-.5-.57-.34-1.01-.8-1.32-1.38-.31-.58-.47-1.25-.47-1.99s.15-1.43,.46-2.01c.31-.58,.73-1.04,1.26-1.37,.53-.33,1.14-.5,1.81-.5s1.23,.16,1.75,.47,.93,.76,1.24,1.34c.3,.58,.46,1.28,.46,2.09,0,.08,0,.18-.01,.29s-.02,.21-.02,.3h-5.38v-1.27h4.37l-.74,.38c0-.39-.07-.73-.21-1.02-.14-.29-.33-.52-.58-.68-.25-.16-.53-.25-.86-.25s-.62,.08-.87,.25-.44,.39-.58,.69c-.14,.29-.21,.64-.21,1.04v.34c0,.41,.08,.77,.24,1.08,.16,.31,.39,.55,.68,.71s.63,.25,1.03,.25c.35,0,.66-.06,.93-.18,.27-.12,.51-.3,.73-.55l1.02,1.26c-.3,.39-.68,.69-1.14,.9s-.99,.32-1.59,.32Z"/><path d="M138.55,28.4v-7.53h1.83v2.13l-.26-.62c.2-.53,.51-.94,.95-1.21,.43-.27,.96-.41,1.59-.41v2.02c-.08,0-.16-.02-.22-.02-.07,0-.13,0-.21,0-.52,0-.95,.17-1.27,.51-.32,.34-.49,.87-.49,1.59v3.56h-1.92Z"/></g></g></g></svg>