<?xml version="1.0" encoding="UTF-8"?><svg xmlns="http://www.w3.org/2000/svg" width="1712" height="818" viewBox="0 0 1712 818"><g id="a"/><g id="b"><g id="c"><rect width="1712" height="818" style="fill:#aaa694; opacity:.42;"/><g style="opacity:.3;"><circle cx="840.5" cy="409.5" r="71.5" style="fill:none; stroke:#6b685c; stroke-miterlimit:10; stroke-width:6px;"/><path d="M824,374.46l47,34.95-47,34.95v-69.89m0-6c-.92,0-1.84,.21-2.69,.64-2.03,1.02-3.31,3.09-3.31,5.36v69.89c0,2.27,1.28,4.34,3.31,5.36,.85,.43,1.78,.64,2.69,.64,1.27,0,2.53-.4,3.58-1.19l47-34.95c1.52-1.13,2.42-2.92,2.42-4.81s-.9-3.68-2.42-4.81l-47-34.95c-1.05-.78-2.31-1.19-3.58-1.19h0Z" style="fill:#6b685c;"/></g><g><path d="M35.64,39.92l-3.71-9.8h2.15l3.25,8.68h-1.27l3.3-8.68h1.98l-3.73,9.8h-1.97Z"/><path d="M44.84,31.33c-.35,0-.64-.12-.86-.35-.22-.23-.33-.52-.33-.87s.11-.63,.33-.87c.22-.23,.51-.35,.86-.35s.64,.11,.86,.33c.22,.22,.33,.5,.33,.85,0,.36-.11,.67-.33,.9-.22,.24-.51,.36-.87,.36Zm-.96,8.58v-7.53h1.92v7.53h-1.92Z"/><path d="M52.27,40.03c-.62,0-1.18-.16-1.68-.48-.5-.32-.9-.77-1.19-1.35-.29-.58-.44-1.26-.44-2.04s.15-1.48,.44-2.06c.29-.58,.69-1.03,1.19-1.34,.5-.32,1.06-.48,1.68-.48,.56,0,1.04,.14,1.46,.42,.42,.28,.74,.7,.97,1.27s.34,1.3,.34,2.18-.11,1.6-.33,2.18-.54,1-.95,1.28c-.41,.28-.91,.42-1.49,.42Zm.33-1.79c.31,0,.59-.08,.85-.25s.46-.41,.61-.72c.15-.31,.23-.68,.23-1.11s-.08-.81-.23-1.12c-.15-.31-.35-.55-.61-.71s-.54-.25-.85-.25-.61,.08-.86,.25c-.25,.17-.46,.41-.61,.71-.15,.31-.23,.68-.23,1.12s.08,.8,.23,1.11c.15,.31,.35,.55,.61,.72,.25,.17,.54,.25,.86,.25Zm1.73,1.68v-1.54l.04-2.24-.12-2.23v-4.38h1.92v10.39h-1.83Z"/><path d="M63.07,40.03c-.75,0-1.42-.17-1.99-.5-.57-.34-1.01-.8-1.32-1.38-.31-.58-.47-1.25-.47-1.99s.15-1.43,.46-2.01c.31-.58,.73-1.04,1.26-1.37,.53-.33,1.14-.5,1.81-.5s1.23,.16,1.75,.47,.93,.76,1.24,1.34c.3,.58,.46,1.28,.46,2.09,0,.08,0,.18-.01,.29s-.02,.21-.02,.3h-5.38v-1.27h4.37l-.74,.38c0-.39-.07-.73-.21-1.02-.14-.29-.33-.52-.58-.68-.25-.16-.53-.25-.86-.25s-.62,.08-.87,.25-.44,.39-.58,.69c-.14,.29-.21,.64-.21,1.04v.34c0,.41,.08,.77,.24,1.08,.16,.31,.39,.55,.68,.71s.63,.25,1.03,.25c.35,0,.66-.06,.93-.18,.27-.12,.51-.3,.73-.55l1.02,1.26c-.3,.39-.68,.69-1.14,.9s-.99,.32-1.59,.32Z"/><path d="M72.54,40.03c-.71,0-1.33-.17-1.88-.5s-.98-.8-1.29-1.38c-.32-.58-.47-1.25-.47-1.99s.16-1.43,.47-2.01c.32-.58,.75-1.04,1.29-1.37,.54-.33,1.17-.5,1.88-.5s1.32,.17,1.87,.5c.55,.33,.98,.79,1.29,1.37,.31,.58,.47,1.25,.47,2.02s-.16,1.41-.47,1.99c-.31,.58-.74,1.04-1.29,1.38-.55,.34-1.17,.5-1.87,.5Zm0-1.79c.32,0,.61-.08,.86-.25s.46-.41,.6-.72c.15-.31,.22-.68,.22-1.11s-.07-.81-.22-1.12c-.15-.31-.35-.55-.6-.71s-.54-.25-.86-.25-.61,.08-.86,.25-.46,.41-.61,.71c-.15,.31-.23,.68-.23,1.12s.08,.8,.23,1.11c.15,.31,.35,.55,.61,.72s.54,.25,.86,.25Z"/></g></g></g></svg>